<?xml version="1.0" encoding="utf-8"?>
<!-- Generator: Adobe Illustrator 21.0.0, SVG Export Plug-In . SVG Version: 6.00 Build 0)  -->
<svg version="1.1" id="Layer_1" xmlns="http://www.w3.org/2000/svg" xmlns:xlink="http://www.w3.org/1999/xlink" x="0px" y="0px"
	 viewBox="0 0 100 100" style="enable-background:new 0 0 100 100;" xml:space="preserve">
<style type="text/css">
	.st0{enable-background:new    ;}
	.st1{fill:#C4C4C4;}
	.st2{display:none;}
	.st3{display:inline;fill:none;stroke:#000000;stroke-miterlimit:10;}
	.st4{display:inline;fill:none;stroke:#000000;stroke-width:2;stroke-miterlimit:10;}
</style>
<g id="Layer_1_1_">
	<g class="st0">
		<path class="st1" d="M30,17c3.6,0,6.4,1.4,8.6,4.2c2.1,2.8,3.2,6.3,3.2,10.5v5.2c0,4.2-1.3,8-3.9,11.2c2.9,3.3,4.3,7.4,4.3,12.3
			v6.8c0,4.7-1.2,8.5-3.6,11.5c-2.4,2.9-5.4,4.4-9.1,4.4H18.1V17H30z M23.8,24.4v20.3h6.9c1.7,0,3.1-0.7,4.1-2s1.5-3.1,1.5-5.5v-5.5
			c0-2.1-0.5-3.8-1.6-5.2c-1.1-1.4-2.5-2.1-4.3-2.1C30.4,24.4,23.8,24.4,23.8,24.4z M23.8,75.6H30c2,0,3.6-0.8,4.8-2.4
			s1.7-3.6,1.7-6v-6.8c0-2.1-0.5-4.1-1.5-5.8c-1-1.8-2.6-2.6-4.7-2.6h-6.5V75.6z"/>
	</g>
	<g class="st0">
		<path class="st1" d="M70.7,17c3.6,0,6.4,1.4,8.6,4.2c2.1,2.8,3.2,6.3,3.2,10.5v5.2c0,4.2-1.3,8-3.9,11.2c2.9,3.3,4.3,7.4,4.3,12.3
			v6.8c0,4.7-1.2,8.5-3.6,11.5c-2.4,2.9-5.4,4.4-9.1,4.4H58.8V17H70.7z M64.5,24.4v20.3h6.9c1.7,0,3.1-0.7,4.1-2s1.5-3.1,1.5-5.5
			v-5.5c0-2.1-0.5-3.8-1.6-5.2c-1.1-1.4-2.5-2.1-4.3-2.1C71.1,24.4,64.5,24.4,64.5,24.4z M64.5,75.6h6.2c2,0,3.6-0.8,4.8-2.4
			c1.2-1.6,1.7-3.6,1.7-6v-6.8c0-2.1-0.5-4.1-1.5-5.8c-1-1.8-2.6-2.6-4.7-2.6h-6.5V75.6z"/>
	</g>
</g>
<g id="Layer_2_1_" class="st2">
	<rect class="st3" width="50" height="100"/>
	<rect x="50" class="st3" width="50" height="100"/>
	<circle class="st4" cx="50" cy="50" r="50"/>
</g>
</svg>
