<?xml version="1.0" encoding="utf-8"?>
<!-- Generator: Adobe Illustrator 21.0.0, SVG Export Plug-In . SVG Version: 6.00 Build 0)  -->
<svg version="1.1" id="Layer_1" xmlns="http://www.w3.org/2000/svg" xmlns:xlink="http://www.w3.org/1999/xlink" x="0px" y="0px"
	 viewBox="0 0 100 100" style="enable-background:new 0 0 100 100;" xml:space="preserve">
<style type="text/css">
	.st0{fill:#D14836;}
	.st1{fill:#FFFFFF;}
</style>
<circle class="st0" cx="50" cy="50" r="50"/>
<circle class="st1" cx="50" cy="50" r="40"/>
<path class="st0" d="M75,34.3v31.4c0,1.8-1.3,3.2-3.2,3.2h-3.2V40.3L49.9,53.9L31.2,40.3v28.4h-3.1c-1.8,0-3.1-1.3-3.1-3.2V34.3
	c0-0.9,0.4-1.7,0.9-2.2c0.6-0.6,1.4-0.9,2.3-0.9h1.1l20.8,15L71,31.1h1c0.9,0,1.7,0.4,2.3,0.9C74.7,32.6,75,33.4,75,34.3z"/>
</svg>
