<svg id="Layer_1" data-name="Layer 1" xmlns="http://www.w3.org/2000/svg" viewBox="0 0 2652 2606"><defs><style>.cls-1,.cls-2,.cls-5{fill:none;}.cls-1,.cls-12,.cls-15,.cls-16,.cls-17,.cls-19,.cls-2,.cls-3,.cls-5,.cls-6,.cls-7,.cls-9{stroke:#000;stroke-miterlimit:10;}.cls-1{stroke-width:3px;}.cls-2{stroke-width:2px;}.cls-3{fill:#3f76ff;}.cls-20,.cls-4{font-size:50px;}.cls-10,.cls-20,.cls-4,.cls-8{font-family:ArialMT, Arial;}.cls-6{fill:#75f;}.cls-7{fill:#fff;}.cls-8{font-size:26px;}.cls-9{fill:#53bcff;}.cls-10{font-size:38px;}.cls-11{letter-spacing:-0.06em;}.cls-12{fill:#cc83ff;}.cls-13{letter-spacing:-0.07em;}.cls-14{letter-spacing:-0.02em;}.cls-15{fill:#0d0;}.cls-16{fill:#f81;}.cls-17{fill:#f6371f;}.cls-18{letter-spacing:-0.11em;}.cls-19{fill:#900;}.cls-20{fill:#fc0;}</style></defs><title>map_classes_svg</title><line class="cls-1" x1="801" y1="1591.5" x2="1327" y2="1416.5"/><line class="cls-1" x1="1324" y1="1766.5" x2="801" y2="1591.5"/><line class="cls-2" x1="1327" y1="1416" x2="772.5" y2="495.5"/><line class="cls-2" x1="1896" y1="885" x2="1327" y2="1416"/><g id="Mechanical_Engineering" data-name="Mechanical Engineering"><rect class="cls-3" x="1151.5" y="1341.5" width="350" height="150"/><text class="cls-4" transform="translate(1200.05 1399.33)">Mechanical <tspan x="-6.98" y="60">Engineering</tspan></text></g><g id="Programming"><line class="cls-5" x1="1953.5" y1="98.5" x2="1818.5" y2="450.5"/><line class="cls-5" x1="2206.5" y1="511.5" x2="1953.5" y2="98.5"/><line class="cls-5" x1="1358.5" y1="402.5" x2="1953.5" y2="98.5"/><line class="cls-5" x1="1209.5" y1="196.5" x2="1953.5" y2="98.5"/><line class="cls-5" x1="860.5" y1="61.5" x2="1953.5" y2="98.5"/><rect class="cls-6" x="1778.5" y="48.5" width="350" height="100"/><text class="cls-4" transform="translate(1803.45 110.31)">Programming</text></g><line class="cls-5" x1="773" y1="496" x2="860" y2="62"/><line class="cls-5" x1="421" y1="142" x2="773" y2="496"/><line class="cls-5" x1="773" y1="496" x2="216" y2="337"/><line class="cls-5" x1="176" y1="527" x2="773" y2="496"/><line class="cls-5" x1="242" y1="699" x2="773" y2="496"/><line class="cls-5" x1="395" y1="836" x2="773" y2="496"/><line class="cls-5" x1="773" y1="934" x2="774" y2="496"/><line class="cls-5" x1="1358" y1="403" x2="774" y2="496"/><line class="cls-5" x1="1209" y1="197" x2="774" y2="496"/><g id="ISE_382" data-name="ISE 382"><rect class="cls-7" x="1183.5" y="377.5" width="350" height="100"/><text class="cls-8" transform="translate(1245.78 405.23)">Database Systems: <tspan x="-15.2" y="31.2">Concepts, Design and </tspan><tspan x="23.84" y="62.4">Implementation</tspan></text><rect class="cls-9" x="1183.5" y="327.5" width="350" height="50"/><text class="cls-10" transform="translate(1291.4 361.5)">ISE 382</text></g><g id="EE_364" data-name="EE 364"><rect class="cls-7" x="248.5" y="104.5" width="350" height="125"/><text class="cls-8" transform="translate(276.81 130.5)">Introduction to Probability <tspan x="-5.75" y="31.2">and Statistics for Electrical </tspan><tspan x="-8.68" y="62.4">Engineering and Computer </tspan><tspan x="100.45" y="93.6">Science</tspan></text><rect class="cls-9" x="248.5" y="54.5" width="350" height="50"/><text class="cls-10" transform="translate(361.67 88.5)">EE 364</text></g><g id="AME_441" data-name="AME 441"><rect class="cls-7" x="39.5" y="337.22" width="350" height="50"/><text class="cls-8" transform="translate(61.09 368.85)">Senior Projects Laboratory</text><rect class="cls-9" x="39.5" y="287.5" width="350" height="50"/><text class="cls-10" transform="translate(136.85 321.5)">AME 441</text></g><g id="AME_408" data-name="AME 408"><rect class="cls-7" x="0.5" y="514.5" width="350" height="75"/><text class="cls-8" transform="translate(22.31 544.24)">Computer-Aided Desing of <tspan x="33.98" y="31.2">Mechanical Systems</tspan></text><rect class="cls-9" x="0.5" y="464.5" width="350" height="50"/><text class="cls-10" transform="translate(97.85 498.73)">AME 408</text></g><g id="AME_405" data-name="AME 405"><rect class="cls-7" x="1036.5" y="184.5" width="350" height="75"/><text class="cls-8" transform="translate(1078.52 214.22)">Functional<tspan class="cls-11" x="119.96" y="0"> </tspan><tspan x="125.75" y="0">Approach to </tspan><tspan x="-4.32" y="31.2">Computational Methods</tspan></text><rect class="cls-9" x="1036.5" y="134.5" width="350" height="50"/><text class="cls-10" transform="translate(1133.85 168.74)">AME 405</text></g><g id="AME_404" data-name="AME 404"><rect class="cls-7" x="684.5" y="50.5" width="350" height="75"/><text class="cls-8" transform="translate(704.13 80.38)">Computational Solutions to <tspan x="27.47" y="31.2">Engineering Problems</tspan></text><rect class="cls-9" x="684.5" y="0.5" width="350" height="50"/><text class="cls-10" transform="translate(781.85 34.73)">AME 404</text></g><g id="AME_341" data-name="AME 341"><rect class="cls-7" x="68.5" y="698.55" width="350" height="50"/><text class="cls-8" transform="translate(93.7 730.19)">Mechoptronics Laboratory</text><rect class="cls-9" x="68.5" y="648.83" width="350" height="50"/><text class="cls-10" transform="translate(165.85 683.06)">AME 341</text></g><g id="AME_308" data-name="AME 308"><rect class="cls-7" x="219.5" y="822.5" width="350" height="75"/><text class="cls-8" transform="translate(244.2 852.24)">Computer-Aided<tspan class="cls-11" x="189.31" y="0"> </tspan><tspan x="195.1" y="0">Analyses </tspan><tspan x="-9.39" y="31.2">for</tspan><tspan class="cls-11" x="20.95" y="31.2"> </tspan><tspan x="26.74" y="31.2">Aero-Mechanical Design</tspan></text><rect class="cls-9" x="219.5" y="772.5" width="350" height="50"/><text class="cls-10" transform="translate(316.85 806.73)">AME 308</text></g><g id="AME_302" data-name="AME 302"><rect class="cls-7" x="597.5" y="933.22" width="350" height="50"/><text class="cls-8" transform="translate(668.98 964.85)">Dynamic Systems</text><rect class="cls-9" x="597.75" y="883.5" width="350" height="50"/><text class="cls-10" transform="translate(694.6 917.73)">AME 302</text></g><g id="Engineering"><rect class="cls-9" x="598.36" y="446.49" width="350" height="100"/><text class="cls-4" transform="translate(639.92 508.14)">Engineering</text></g><line class="cls-5" x1="2207" y1="512" x2="1892.5" y2="886.5"/><line class="cls-5" x1="2456" y1="735" x2="1890.5" y2="890.5"/><line class="cls-5" x1="2478" y1="977" x2="1894.5" y2="888.5"/><line class="cls-5" x1="2275" y1="1222" x2="1893.5" y2="884.5"/><line class="cls-5" x1="1362.5" y1="1087.5" x2="1893.5" y2="884.5"/><line class="cls-5" x1="1294.5" y1="849.5" x2="1893.5" y2="884.5"/><line class="cls-5" x1="1420.5" y1="616.5" x2="1893.5" y2="884.5"/><line class="cls-5" x1="1818" y1="451" x2="1895.5" y2="884.5"/><g id="MATH_445" data-name="MATH 445"><rect class="cls-7" x="2099.5" y="1196.5" width="350" height="75"/><text class="cls-8" transform="translate(2112.65 1226.23)">Mathematics of Physics and <tspan x="81.62" y="31.2">Engineering II</tspan></text><rect class="cls-12" x="2099.5" y="1146.5" width="350" height="50"/><text class="cls-10" transform="translate(2185.6 1180.73)">M<tspan class="cls-13" x="31.65" y="0">A</tspan><tspan x="54.18" y="0">TH 445</tspan></text></g><g id="PHYS_163" data-name="PHYS 163"><rect class="cls-7" x="1247.5" y="591.5" width="350" height="75"/><text class="cls-8" transform="translate(1290.26 621.38)">Advanced Principles of <tspan x="73" y="31.2">Physics III</tspan></text><rect class="cls-12" x="1247.5" y="541.5" width="350" height="50"/><text class="cls-10" transform="translate(1334.28 575.5)">PHYS 163</text></g><g id="PHYS_162" data-name="PHYS 162"><rect class="cls-7" x="1119.5" y="835.5" width="350" height="75"/><text class="cls-8" transform="translate(1162.26 865.23)">Advanced Principles of <tspan x="76.62" y="31.2">Physics II</tspan></text><rect class="cls-12" x="1119.5" y="785.5" width="350" height="50"/><text class="cls-10" transform="translate(1206.28 819.73)">PHYS 162</text></g><g id="PHYS_161" data-name="PHYS 161"><rect class="cls-7" x="1186.5" y="1079.5" width="350" height="75"/><text class="cls-8" transform="translate(1229.26 1109.37)">Advanced Principles of <tspan x="80.23" y="31.2">Physics I</tspan></text><rect class="cls-12" x="1186.5" y="1029.5" width="350" height="50"/><text class="cls-10" transform="translate(1273.28 1063.74)">PHYS 161</text></g><g id="MATH_245" data-name="MATH 245"><rect class="cls-7" x="2301.5" y="961.5" width="350" height="75"/><text class="cls-8" transform="translate(2314.65 991.23)">Mathematics of Physics and <tspan x="85.24" y="31.2">Engineering I</tspan></text><rect class="cls-12" x="2301.5" y="911.5" width="350" height="50"/><text class="cls-10" transform="translate(2387.6 945.73)">M<tspan class="cls-13" x="31.65" y="0">A</tspan><tspan x="54.18" y="0">TH 245</tspan></text></g><g id="MATH_229" data-name="MATH 229"><rect class="cls-7" x="2283.5" y="717.5" width="350" height="75"/><text class="cls-8" transform="translate(2313.27 747.23)">Calculus III for Engineers <tspan x="64.3" y="31.2">and Scientists</tspan></text><rect class="cls-12" x="2283.5" y="667.5" width="350" height="50"/><text class="cls-10" transform="translate(2369.6 701.73)">M<tspan class="cls-13" x="31.65" y="0">A</tspan><tspan x="54.18" y="0">TH 229</tspan></text></g><g id="ITP_168" data-name="ITP 168"><rect class="cls-7" x="2032.5" y="504.99" width="350" height="50"/><text class="cls-8" transform="translate(2070.95 536.61)">Introduction to M<tspan class="cls-13" x="193.65" y="0">A</tspan><tspan x="209.07" y="0">TLAB</tspan></text><rect class="cls-12" x="2032.5" y="455.27" width="350" height="50"/><text class="cls-10" transform="translate(2141.81 489.49)">IT<tspan class="cls-14" x="33.77" y="0">P</tspan><tspan x="58.43" y="0" xml:space="preserve"> 168</tspan></text></g><g id="ITP_165" data-name="ITP 165"><rect class="cls-7" x="1640.5" y="434.5" width="350" height="75"/><text class="cls-8" transform="translate(1733.11 464.23)">Introduction to <tspan x="-23.82" y="31.2">C++ Programming</tspan></text><rect class="cls-12" x="1640.5" y="384.5" width="350" height="50"/><text class="cls-10" transform="translate(1749.81 418.73)">IT<tspan class="cls-14" x="33.77" y="0">P</tspan><tspan x="58.43" y="0" xml:space="preserve"> 165</tspan></text></g><g id="Sciences"><rect class="cls-12" x="1718.5" y="834.5" width="350" height="100"/><text class="cls-4" transform="translate(1792.56 896.3)">Sciences</text></g><line class="cls-2" x1="1722.5" y1="2216.5" x2="1324" y2="1766"/><line class="cls-2" x1="754" y1="2023" x2="1327" y2="1766"/><g id="Business"><line class="cls-5" x1="754" y1="2023" x2="1284" y2="2142"/><line class="cls-5" x1="754" y1="2023" x2="807" y2="2368"/><g id="WRIT_340" data-name="WRIT 340"><rect class="cls-7" x="631.5" y="2348.5" width="350" height="75"/><text class="cls-8" transform="translate(686.07 2378.08)">Advanced <tspan class="cls-14" x="122.87" y="0">W</tspan><tspan x="146.94" y="0">riting for </tspan><tspan x="67.68" y="31.2">Business</tspan></text><rect class="cls-15" x="631.5" y="2298.5" width="350" height="50"/><text class="cls-10" transform="translate(721.82 2332.73)">WRI<tspan class="cls-14" x="73.87" y="0">T</tspan><tspan x="96.39" y="0" xml:space="preserve"> 340</tspan></text></g><g id="Business-2" data-name="Business"><rect class="cls-15" x="578.5" y="1972.5" width="350" height="100"/><text class="cls-4" transform="translate(652.06 2034.32)">Business</text></g></g><g id="Sport_Media_Studies" data-name="Sport Media Studies"><rect class="cls-16" x="1151.75" y="1691.5" width="350" height="150"/><text class="cls-4" transform="translate(1179.46 1749.42)">Sports Media <tspan x="63.9" y="60">Studies</tspan></text></g><line class="cls-5" x1="1723" y1="2216" x2="1956" y2="1936"/><line class="cls-5" x1="2159" y1="2147" x2="1720" y2="2216"/><line class="cls-5" x1="2117" y1="2368" x2="1720" y2="2217"/><line class="cls-5" x1="1721" y1="2543" x2="1722" y2="2215"/><line class="cls-5" x1="1324" y1="2368" x2="1723" y2="2217"/><line class="cls-5" x1="1284" y1="2142" x2="1721" y2="2218"/><g id="OT_333" data-name="OT 333"><rect class="cls-7" x="1781.5" y="1936.22" width="350" height="50"/><text class="cls-8" transform="translate(1880.42 1967.85)">Sports Ethics</text><rect class="cls-17" x="1781.5" y="1886.5" width="350" height="50"/><text class="cls-10" transform="translate(1893.98 1920.73)">O<tspan class="cls-14" x="29.56" y="0">T</tspan><tspan x="52.08" y="0" xml:space="preserve"> 333</tspan></text></g><g id="JOUR_380" data-name="JOUR 380"><rect class="cls-7" x="1984.5" y="2134.5" width="350" height="75"/><text class="cls-8" transform="translate(1997.63 2164.23)">Sports, Business and Media <tspan x="58.28" y="31.2">in</tspan><tspan class="cls-14" x="78.52" y="31.2"> </tspan><tspan class="cls-18" x="85.27" y="31.2">T</tspan><tspan x="98.27" y="31.2">oday</tspan><tspan class="cls-14" x="154.65" y="31.2">’</tspan><tspan x="159.96" y="31.2">s Society</tspan></text><rect class="cls-17" x="1984.5" y="2084.5" width="350" height="50"/><text class="cls-10" transform="translate(2071.3 2118.73)">JOUR 380</text></g><g id="COMM_444" data-name="COMM 444"><rect class="cls-7" x="1942.5" y="2368.22" width="350" height="50"/><text class="cls-8" transform="translate(1975.18 2399.85)">Critical<tspan class="cls-14" x="79.45" y="0"> </tspan><tspan x="86.2" y="0">Theories of Sport</tspan></text><rect class="cls-17" x="1942.5" y="2318.5" width="350" height="50"/><text class="cls-10" transform="translate(2020.87 2352.73)">COMM 444</text></g><g id="COMM_383" data-name="COMM 383"><rect class="cls-7" x="1544.5" y="2530.5" width="350" height="75"/><text class="cls-8" transform="translate(1559.09 2560.23)">Sports, Communication and <tspan x="118.5" y="31.2">Culture</tspan></text><rect class="cls-17" x="1544.5" y="2480.5" width="350" height="50"/><text class="cls-10" transform="translate(1622.87 2514.73)">COMM 383</text></g><g id="COMM_381" data-name="COMM 381"><rect class="cls-7" x="1148.5" y="2355.5" width="350" height="75"/><text class="cls-8" transform="translate(1186.22 2385.23)">Issues in Contemporary <tspan x="106.21" y="31.2">Sport</tspan></text><rect class="cls-17" x="1148.5" y="2305.5" width="350" height="50"/><text class="cls-10" transform="translate(1226.87 2339.73)">COMM 381</text></g><g id="MOR_479" data-name="MOR 479"><rect class="cls-7" x="1109.5" y="2141.22" width="350" height="50"/><text class="cls-8" transform="translate(1150.6 2173.14)">The Business of Sports</text><rect class="cls-15" x="1109.5" y="2091.5" width="350" height="50"/><text class="cls-10" transform="translate(1203.69 2125.73)">MOR 479</text></g><g id="Media"><rect class="cls-17" x="1546.5" y="2163.5" width="350" height="100"/><text class="cls-4" transform="translate(1653.41 2225.3)">Media</text></g><g id="University_of_Southern_California" data-name="University of Southern California"><rect class="cls-19" x="626" y="1491.5" width="350" height="200"/><text class="cls-20" transform="translate(663.46 1545.74)">University of <tspan x="36.07" y="60">Southern </tspan><tspan x="31.93" y="120">California</tspan></text></g></svg>