<?xml version="1.0" encoding="utf-8"?>
<!-- Generator: Adobe Illustrator 21.0.0, SVG Export Plug-In . SVG Version: 6.00 Build 0)  -->
<svg version="1.1" id="Layer_1" xmlns="http://www.w3.org/2000/svg" xmlns:xlink="http://www.w3.org/1999/xlink" x="0px" y="0px"
	 viewBox="0 0 100 100" style="enable-background:new 0 0 100 100;" xml:space="preserve">
<style type="text/css">
	.st0{fill:#FFFFFF;}
</style>
<circle cx="50" cy="50" r="50"/>
<path class="st0" d="M72,41.9c0.6,14.4-10.1,30.5-29.2,30.5c-5.8,0-11.1-1.7-15.7-4.6c5.5,0.7,10.9-0.9,15.2-4.3
	c-4.5-0.1-8.3-3.1-9.6-7.1c1.6,0.3,3.2,0.3,4.6-0.2c-5-1-8.3-5.4-8.2-10.2c1.4,0.8,3,1.2,4.6,1.3c-4.5-3.1-5.8-9.1-3.2-13.7
	c5.1,6.2,12.6,10.3,21.2,10.7c-1.5-6.4,3.3-12.6,10-12.6c2.9,0,5.7,1.3,7.5,3.3c2.3-0.4,4.5-1.3,6.5-2.5c-0.8,2.4-2.4,4.4-4.5,5.7
	c2.1-0.3,4-0.8,5.9-1.6C75.7,38.6,74,40.4,72,41.9z"/>
</svg>
