<svg id="Layer_1" data-name="Layer 1" xmlns="http://www.w3.org/2000/svg" viewBox="0 0 53.6 66"><path d="M61.8,67V3a.94.94,0,0,0-1-1H23.9a.37.37,0,0,0-.3.1h-.1c-.1,0-.2.1-.3.2h0L8.5,17.2h0c-.1.1-.1.2-.2.3v.1a.37.37,0,0,1-.1.3V67a.94.94,0,0,0,1,1H60.8A.94.94,0,0,0,61.8,67ZM23,5.4V16.9H11.6ZM59.8,66H10.2V18.9H24a.94.94,0,0,0,1-1V4H59.9V66Z" transform="translate(-8.2 -2)"/><path d="M30.9,33.1H54.4a.94.94,0,0,0,1-1V8.5a.94.94,0,0,0-1-1H30.9a.94.94,0,0,0-1,1V32.1A1,1,0,0,0,30.9,33.1Zm1-23.6H53.4V31.1H31.9Z" transform="translate(-8.2 -2)"/><path d="M46.4,19.6h-.5c-.1,0-.1,0-.2.1s-.1,0-.2.1a.1.1,0,0,0-.1.1.35.35,0,0,0-.1.2h0a3,3,0,0,1-2.6,1.5A3.15,3.15,0,0,1,40,20h0c0-.1-.1-.1-.1-.2l-.1-.1c-.1,0-.1-.1-.2-.1s-.1,0-.2-.1h-.5a6,6,0,0,0-4.4,5.8v3.1a.94.94,0,0,0,1,1H49.8a.94.94,0,0,0,1-1V25.3A5.8,5.8,0,0,0,46.4,19.6Zm2.4,7.9H36.5V25.4a4.11,4.11,0,0,1,2.3-3.7,5.15,5.15,0,0,0,3.9,1.8,5.32,5.32,0,0,0,3.9-1.8,4,4,0,0,1,2.3,3.7v2.1Z" transform="translate(-8.2 -2)"/><path d="M42.7,19.7a4.3,4.3,0,1,0-4.3-4.3A4.27,4.27,0,0,0,42.7,19.7Zm0-6.6a2.3,2.3,0,1,1-2.3,2.3A2.26,2.26,0,0,1,42.7,13.1Z" transform="translate(-8.2 -2)"/><path d="M54.4,37.4H19.8a1,1,0,0,0,0,2H54.4a1,1,0,0,0,0-2Z" transform="translate(-8.2 -2)"/><path d="M54.4,45.1H27.2a1,1,0,1,0,0,2H54.4a1,1,0,0,0,0-2Z" transform="translate(-8.2 -2)"/><path d="M54.4,52.8H22.8a1,1,0,1,0,0,2H54.4a1,1,0,0,0,0-2Z" transform="translate(-8.2 -2)"/><path d="M54.4,60.5H15.6a1,1,0,1,0,0,2H54.4a1,1,0,1,0,0-2Z" transform="translate(-8.2 -2)"/></svg>