<svg id="Layer_1" data-name="Layer 1" xmlns="http://www.w3.org/2000/svg" viewBox="0 0 84 84"><path d="M50,8A42,42,0,1,0,92,50,42,42,0,0,0,50,8Zm-2.1,4.1c.1,5.1.1,10.6.1,15.8H35.2C38,19.44,42.5,13.34,47.9,12.14Zm4.1.1c5.4,1.3,9.8,7.3,12.6,15.7H52Zm-12.9,1.4A38.55,38.55,0,0,0,31.3,28H19A37.57,37.57,0,0,1,39.1,13.64Zm21.8,0A37.47,37.47,0,0,1,80.9,28H68.7C66.8,22,64.1,17,60.9,13.64ZM16.5,31.94H30.1a72.81,72.81,0,0,0-2.1,16H12A39.43,39.43,0,0,1,16.5,31.94Zm17.5,0H48v16H31.9A79.36,79.36,0,0,1,34,31.94Zm18,0H65.8a79.36,79.36,0,0,1,2.1,16H52Zm17.8,0H83.4a37.52,37.52,0,0,1,4.5,16H72A72.69,72.69,0,0,0,69.8,31.94Zm-57.7,20h16a72.81,72.81,0,0,0,2.1,16H16.5A37.42,37.42,0,0,1,12.1,51.94Zm19.8,0H48v16H34A78.41,78.41,0,0,1,31.9,51.94Zm20.1,0H67.8a67.27,67.27,0,0,1-2.1,16H52Zm20,0H88a38.9,38.9,0,0,1-4.4,16H69.9A79.36,79.36,0,0,0,72,51.94Zm-53,20H31.3a38.55,38.55,0,0,0,7.8,14.4A37.34,37.34,0,0,1,19,71.94Zm16.2,0H48v15.8C42.5,86.64,38,80.54,35.2,71.94Zm16.8,0H64.6c-2.8,8.4-7.2,14.5-12.6,15.8Zm16.8,0H81a38.24,38.24,0,0,1-20.1,14.4A40.1,40.1,0,0,0,68.8,71.94Z" transform="translate(-8 -8.04)"/></svg>