<?xml version="1.0" encoding="utf-8"?>
<!-- Generator: Adobe Illustrator 23.0.4, SVG Export Plug-In . SVG Version: 6.00 Build 0)  -->
<svg version="1.1" id="Layer_1" xmlns="http://www.w3.org/2000/svg" xmlns:xlink="http://www.w3.org/1999/xlink" x="0px" y="0px"
	 viewBox="0 0 430.8 103.9" style="enable-background:new 0 0 430.8 103.9;" xml:space="preserve">
<style type="text/css">
	.st0{display:none;}
	.st1{display:inline;}
	.st2{fill:#007DC3;}
	.st3{fill:#828487;}
	.st4{fill:#FFFFFF;}
	.st5{fill:#007DC2;}
	.st6{fill:#231F20;}
	.st7{fill:#818385;}
</style>
<g id="Outlined_x5F_color" class="st0">
	<g class="st1">
		<g>
			<g>
				<path class="st2" d="M189.1,56.3c1.7,2.2,2.6,4.6,2.6,7.1c0,2.2-0.8,4.4-2.1,6.4c-5.5,10.2-27.2,17.9-53.1,17.9
					c-30.1,0-54.4-10.3-54.4-23c0-6,5.4-11.4,14.3-15.5c1.7-0.9,3.6-1.8,5.6-2.6c-13.7,4.7-22.6,12-22.6,20.3
					c0,14.1,25.8,25.6,57.5,25.6c31.8,0,57.5-11.4,57.5-25.6C194.3,63.2,192.4,59.6,189.1,56.3"/>
				<path class="st2" d="M175.3,55.2c1.1,1.6,1.8,3.4,1.8,5.2c0,9.8-17.9,17.7-39.9,17.7c-22,0-39.9-7.9-39.9-17.7
					c0-2.9,1.5-5.6,4.2-7.9c-4.3,2.9-6.8,6.4-6.8,10.2c0,10.3,18.8,18.7,42,18.7c23.2,0,42-8.4,42-18.7
					C178.8,60,177.6,57.5,175.3,55.2"/>
				<path class="st2" d="M165,54.4c0.8,1.2,1.2,2.4,1.2,3.7c0,7-12.7,12.6-28.4,12.6c-15.7,0-28.3-5.6-28.3-12.6c0-2,1.1-3.9,3-5.6
					c-3,2.1-4.8,4.6-4.8,7.2c0,7.3,13.4,13.3,29.9,13.3s29.9-5.9,29.9-13.3C167.4,57.8,166.6,56,165,54.4"/>
				<path class="st2" d="M156.2,54.2c0.5,0.8,0.8,1.6,0.8,2.4c0,4.5-8.2,8.2-18.4,8.2c-10.2,0-18.4-3.7-18.4-8.2
					c0-1.3,0.7-2.6,1.9-3.7c-2,1.3-3.1,3-3.1,4.7c0,4.8,8.7,8.6,19.4,8.6c10.7,0,19.4-3.9,19.4-8.6
					C157.8,56.4,157.2,55.2,156.2,54.2"/>
				<path class="st2" d="M137.8,59.1c-3,0-5.5-1.1-5.5-2.4c0-1.3,2.5-2.4,5.5-2.4s5.5,1.1,5.5,2.4C143.3,58,140.9,59.1,137.8,59.1"
					/>
			</g>
			<rect x="106.6" y="11.2" width="4.3" height="38.5"/>
			<polygon points="123.7,9 137.7,47.5 151.8,9 159.6,49.7 155.2,49.7 150.2,23.6 150.1,23.6 137.7,57.5 125.4,23.6 125.3,23.6 
				120.3,49.7 115.9,49.7 			"/>
			<g>
				<path d="M168.8,49.7h-4.3V11.2h6.3c3.3,0,6.8,0.1,9.6,2c2.9,2,4.3,5.4,4.3,8.8c0,3.1-1.3,6.3-3.7,8.3c-2.6,2.2-5.9,2.6-9.1,2.6
					h-3.1L168.8,49.7L168.8,49.7z M168.8,28.9h2.9c4.8,0,8.8-1.4,8.8-6.9c0-6.3-5.1-6.7-10.1-6.7h-1.6L168.8,28.9L168.8,28.9z"/>
			</g>
			<path d="M190.5,38.8l-4.6,10.9h-4.7l17.8-40.3l17.3,40.3h-4.8l-4.6-10.9H190.5z M198.8,19.4l-6.6,15.4h13L198.8,19.4z"/>
			<path d="M246.9,18.9c-3.1-3.2-7.3-5.1-11.8-5.1c-8.6,0-15.5,7.5-15.5,15.9s7,15.9,15.6,15.9c4.3,0,8.6-2.1,11.6-5.1v5.3
				c-3.3,2.4-7.4,3.8-11.5,3.8c-10.9,0-20.1-8.8-20.1-19.8c0-11,9-20.1,20.1-20.1c4.3,0,8.1,1.2,11.5,3.8L246.9,18.9L246.9,18.9z"/>
			<path d="M251.4,48.1v-4.5h2c0.4,0,0.7,0,0.9,0.1c0.2,0.1,0.4,0.2,0.5,0.4c0.1,0.2,0.2,0.4,0.2,0.7c0,0.3-0.1,0.6-0.3,0.8
				c-0.2,0.2-0.5,0.4-1,0.4c0.1,0.1,0.3,0.2,0.4,0.2c0.2,0.2,0.3,0.4,0.5,0.6l0.8,1.2h-0.8l-0.6-0.9c-0.2-0.3-0.3-0.5-0.4-0.6
				c-0.1-0.1-0.2-0.2-0.3-0.3c-0.1-0.1-0.2-0.1-0.3-0.1c-0.1,0-0.2,0-0.3,0H252v2L251.4,48.1L251.4,48.1z M252,45.6h1.3
				c0.3,0,0.5,0,0.6-0.1c0.1-0.1,0.3-0.2,0.4-0.3c0.1-0.1,0.1-0.3,0.1-0.4c0-0.2-0.1-0.4-0.2-0.5s-0.4-0.2-0.7-0.2H252V45.6z"/>
			<path d="M253.1,42.2c-2.1,0-3.7,1.7-3.7,3.7c0,2.1,1.7,3.7,3.7,3.7c2.1,0,3.7-1.7,3.7-3.7C256.8,43.9,255.2,42.2,253.1,42.2
				 M253.1,49.3c-1.9,0-3.4-1.5-3.4-3.4c0-1.8,1.5-3.3,3.4-3.3c1.9,0,3.4,1.5,3.4,3.3C256.5,47.8,255,49.3,253.1,49.3"/>
			<g>
				<path class="st3" d="M216.9,66.9c-0.1-2.1-0.2-4.6-0.2-6.5h-0.1c-0.5,1.8-1.1,3.7-1.9,5.7l-2.7,7.3h-1.5l-2.4-7.2
					c-0.7-2.1-1.3-4.1-1.8-5.9h0c0,1.9-0.2,4.4-0.3,6.7l-0.4,6.5h-1.9l1.1-15.1h2.5l2.6,7.3c0.6,1.9,1.1,3.5,1.5,5.1h0.1
					c0.4-1.5,0.9-3.2,1.6-5.1l2.7-7.3h2.5l0.9,15.1h-1.9L216.9,66.9z"/>
				<path class="st3" d="M232.4,68c0,4-2.8,5.8-5.4,5.8c-2.9,0-5.2-2.2-5.2-5.6c0-3.6,2.4-5.8,5.4-5.8
					C230.2,62.4,232.4,64.7,232.4,68z M223.7,68.1c0,2.4,1.4,4.2,3.3,4.2c1.9,0,3.3-1.8,3.3-4.2c0-1.8-0.9-4.2-3.2-4.2
					S223.7,66,223.7,68.1z"/>
				<path class="st3" d="M235.1,66c0-1.3,0-2.4-0.1-3.4h1.7l0.1,2.1h0.1c0.5-1.5,1.7-2.4,3-2.4c0.2,0,0.4,0,0.6,0.1v1.9
					c-0.2,0-0.4-0.1-0.7-0.1c-1.4,0-2.4,1.1-2.6,2.5c0,0.3-0.1,0.6-0.1,0.9v5.8h-1.9L235.1,66L235.1,66z"/>
				<path class="st3" d="M245.5,59.5v3.1h2.8v1.5h-2.8V70c0,1.3,0.4,2.1,1.5,2.1c0.5,0,0.9-0.1,1.1-0.1l0.1,1.5
					c-0.4,0.2-1,0.3-1.8,0.3c-0.9,0-1.7-0.3-2.1-0.8c-0.6-0.6-0.8-1.6-0.8-2.8v-5.9h-1.7v-1.5h1.7v-2.6L245.5,59.5z"/>
				<path class="st3" d="M260,62.7c0,0.8-0.1,1.7-0.1,3v6.3c0,2.5-0.5,4-1.5,5c-1,1-2.6,1.3-3.9,1.3c-1.3,0-2.7-0.3-3.6-0.9l0.5-1.5
					c0.7,0.4,1.8,0.8,3.2,0.8c2,0,3.5-1.1,3.5-3.8v-1.2h0c-0.6,1-1.8,1.8-3.5,1.8c-2.7,0-4.6-2.3-4.6-5.3c0-3.7,2.4-5.8,4.9-5.8
					c1.9,0,2.9,1,3.4,1.9h0l0.1-1.6H260z M258,66.9c0-0.3,0-0.6-0.1-0.9c-0.4-1.1-1.3-2.1-2.8-2.1c-1.9,0-3.2,1.6-3.2,4.1
					c0,2.1,1.1,3.9,3.2,3.9c1.2,0,2.3-0.8,2.7-2c0.1-0.3,0.2-0.7,0.2-1.1L258,66.9L258,66.9z"/>
				<path class="st3" d="M269.4,73.5l-0.2-1.4h-0.1c-0.6,0.8-1.8,1.6-3.3,1.6c-2.2,0-3.3-1.6-3.3-3.1c0-2.6,2.3-4.1,6.5-4v-0.2
					c0-0.9-0.2-2.5-2.5-2.5c-1,0-2.1,0.3-2.8,0.8l-0.5-1.3c0.9-0.6,2.2-1,3.6-1c3.3,0,4.1,2.3,4.1,4.4v4.1c0,0.9,0,1.9,0.2,2.6
					L269.4,73.5L269.4,73.5z M269.1,68c-2.1,0-4.6,0.3-4.6,2.4c0,1.3,0.9,1.9,1.9,1.9c1.4,0,2.3-0.9,2.6-1.8
					c0.1-0.2,0.1-0.4,0.1-0.6L269.1,68L269.1,68z"/>
				<path class="st3" d="M283.8,62.7c0,0.8-0.1,1.7-0.1,3v6.3c0,2.5-0.5,4-1.5,5c-1,1-2.6,1.3-4,1.3c-1.3,0-2.7-0.3-3.6-0.9l0.5-1.5
					c0.7,0.4,1.8,0.8,3.2,0.8c2,0,3.5-1.1,3.5-3.8v-1.2h0c-0.6,1-1.8,1.8-3.5,1.8c-2.7,0-4.6-2.3-4.6-5.3c0-3.7,2.4-5.8,4.9-5.8
					c1.9,0,2.9,1,3.4,1.9h0l0.1-1.6H283.8z M281.8,66.9c0-0.3,0-0.6-0.1-0.9c-0.4-1.1-1.3-2.1-2.8-2.1c-1.9,0-3.2,1.6-3.2,4.1
					c0,2.1,1.1,3.9,3.2,3.9c1.2,0,2.3-0.8,2.7-2c0.1-0.3,0.2-0.7,0.2-1.1L281.8,66.9L281.8,66.9z"/>
				<path class="st3" d="M288.3,68.4c0,2.7,1.8,3.8,3.7,3.8c1.4,0,2.3-0.2,3-0.6l0.3,1.4c-0.7,0.3-1.9,0.7-3.6,0.7
					c-3.3,0-5.3-2.2-5.3-5.5c0-3.3,1.9-5.8,5.1-5.8c3.5,0,4.5,3.1,4.5,5.1c0,0.4,0,0.7-0.1,0.9H288.3z M294.1,67
					c0-1.3-0.5-3.2-2.7-3.2c-2,0-2.9,1.8-3,3.2H294.1z"/>
				<path class="st2" d="M314.3,73c-0.7,0.4-2.1,0.7-4,0.7c-4.3,0-7.5-2.7-7.5-7.7c0-4.7,3.2-7.9,7.9-7.9c1.9,0,3.1,0.4,3.6,0.7
					l-0.5,1.6c-0.7-0.4-1.8-0.6-3-0.6c-3.5,0-5.9,2.3-5.9,6.2c0,3.7,2.1,6.1,5.8,6.1c1.2,0,2.4-0.2,3.2-0.6L314.3,73z"/>
				<path class="st2" d="M326.5,68c0,4-2.8,5.8-5.4,5.8c-2.9,0-5.2-2.2-5.2-5.6c0-3.6,2.4-5.8,5.4-5.8
					C324.4,62.4,326.5,64.7,326.5,68z M317.9,68.1c0,2.4,1.4,4.2,3.3,4.2c1.9,0,3.3-1.8,3.3-4.2c0-1.8-0.9-4.2-3.2-4.2
					C318.9,63.9,317.9,66,317.9,68.1z"/>
				<path class="st2" d="M329.2,66c0-1.3,0-2.4-0.1-3.4h1.7l0.1,2.1h0.1c0.5-1.5,1.7-2.4,3-2.4c0.2,0,0.4,0,0.6,0.1v1.9
					c-0.2,0-0.4-0.1-0.7-0.1c-1.4,0-2.4,1.1-2.6,2.5c0,0.3-0.1,0.6-0.1,0.9v5.8h-2L329.2,66L329.2,66z"/>
				<path class="st2" d="M336.8,66.2c0-1.4,0-2.5-0.1-3.5h1.8l0.1,1.9h0c0.8-1.3,2.1-2.1,3.9-2.1c2.6,0,4.6,2.2,4.6,5.5
					c0,3.9-2.4,5.8-4.9,5.8c-1.4,0-2.7-0.6-3.3-1.7h0v5.9h-2L336.8,66.2L336.8,66.2z M338.8,69.1c0,0.3,0,0.6,0.1,0.8
					c0.4,1.4,1.5,2.3,3,2.3c2.1,0,3.3-1.7,3.3-4.2c0-2.2-1.1-4-3.2-4c-1.4,0-2.6,1-3,2.4c-0.1,0.2-0.1,0.5-0.1,0.8L338.8,69.1
					L338.8,69.1z"/>
				<path class="st2" d="M348.8,72.3c0-0.8,0.6-1.4,1.4-1.4c0.8,0,1.3,0.6,1.3,1.4c0,0.8-0.5,1.4-1.4,1.4
					C349.3,73.8,348.8,73.1,348.8,72.3z"/>
			</g>
		</g>
		<g>
			<path class="st2" d="M204.6,90.4l-1.9-7.9h1.5l0.8,3.6c0.2,1,0.4,2,0.5,2.7h0c0.1-0.8,0.4-1.8,0.6-2.8l0.9-3.6h1.5l0.8,3.6
				c0.2,0.9,0.4,1.8,0.5,2.7h0c0.1-0.9,0.3-1.8,0.5-2.7l0.8-3.6h1.5l-2.1,7.9h-1.5l-0.8-3.7c-0.2-0.9-0.3-1.6-0.4-2.5h0
				c-0.1,0.8-0.3,1.6-0.5,2.5l-0.9,3.7L204.6,90.4L204.6,90.4z"/>
			<path class="st2" d="M225.6,82.5v3.2h3.3v-3.2h1.4v7.9H229v-3.5h-3.3v3.5h-1.4v-7.9H225.6z"/>
			<path class="st2" d="M249.8,86.4c0,2.6-1.6,4.1-3.8,4.1c-2.2,0-3.6-1.7-3.6-4c0-2.4,1.5-4.1,3.7-4.1
				C248.4,82.4,249.8,84.1,249.8,86.4z M243.9,86.5c0,1.6,0.8,2.9,2.2,2.9c1.4,0,2.2-1.3,2.2-2.9c0-1.5-0.7-2.9-2.2-2.9
				C244.7,83.5,243.9,84.9,243.9,86.5z"/>
			<path class="st2" d="M261.8,82.5h1.4v6.7h3.2v1.2h-4.7V82.5z"/>
			<path class="st2" d="M282.7,86.9h-3v2.3h3.3v1.2h-4.7v-7.9h4.6v1.2h-3.1v2h3V86.9z"/>
			<path class="st2" d="M295,88.8c0.5,0.3,1.2,0.5,1.9,0.5c0.9,0,1.4-0.4,1.4-1.1c0-0.6-0.4-0.9-1.4-1.3c-1.3-0.5-2.1-1.2-2.1-2.3
				c0-1.3,1.1-2.3,2.8-2.3c0.9,0,1.5,0.2,1.9,0.4l-0.4,1.2c-0.3-0.2-0.8-0.4-1.6-0.4c-0.9,0-1.3,0.5-1.3,0.9c0,0.6,0.5,0.9,1.5,1.3
				c1.4,0.5,2,1.2,2,2.3c0,1.3-1,2.3-3,2.3c-0.8,0-1.7-0.2-2.1-0.5L295,88.8z"/>
			<path class="st2" d="M313.5,88.2l-0.7,2.2h-1.5l2.5-7.9h1.8l2.5,7.9h-1.5l-0.7-2.2H313.5z M315.7,87.1l-0.6-1.9
				c-0.1-0.5-0.3-1-0.4-1.5h0c-0.1,0.5-0.2,1-0.4,1.5l-0.6,1.9H315.7z"/>
			<path class="st2" d="M330.1,82.5h1.4v6.7h3.2v1.2h-4.7V82.5z"/>
			<path class="st2" d="M351,86.9h-3v2.3h3.3v1.2h-4.7v-7.9h4.6v1.2H348v2h3V86.9z"/>
		</g>
	</g>
</g>
<g id="Outlined_x5F_black" class="st0">
	<g class="st1">
		<g>
			<g>
				<path d="M189.1,56.3c1.7,2.2,2.6,4.6,2.6,7.1c0,2.2-0.8,4.4-2.1,6.4c-5.5,10.2-27.2,17.9-53.1,17.9c-30.1,0-54.4-10.3-54.4-23
					c0-6,5.4-11.4,14.3-15.5c1.7-0.9,3.6-1.8,5.6-2.6c-13.7,4.7-22.6,12-22.6,20.3c0,14.1,25.8,25.6,57.5,25.6
					c31.8,0,57.5-11.4,57.5-25.6C194.3,63.2,192.4,59.6,189.1,56.3"/>
				<path d="M175.3,55.2c1.1,1.6,1.8,3.4,1.8,5.2c0,9.8-17.9,17.7-39.9,17.7c-22,0-39.9-7.9-39.9-17.7c0-2.9,1.5-5.6,4.2-7.9
					c-4.3,2.9-6.8,6.4-6.8,10.2c0,10.3,18.8,18.7,42,18.7c23.2,0,42-8.4,42-18.7C178.8,60,177.6,57.5,175.3,55.2"/>
				<path d="M165,54.4c0.8,1.2,1.2,2.4,1.2,3.7c0,7-12.7,12.6-28.4,12.6c-15.7,0-28.3-5.6-28.3-12.6c0-2,1.1-3.9,3-5.6
					c-3,2.1-4.8,4.6-4.8,7.2c0,7.3,13.4,13.3,29.9,13.3s29.9-5.9,29.9-13.3C167.4,57.8,166.6,56,165,54.4"/>
				<path d="M156.2,54.2c0.5,0.8,0.8,1.6,0.8,2.4c0,4.5-8.2,8.2-18.4,8.2c-10.2,0-18.4-3.7-18.4-8.2c0-1.3,0.7-2.6,1.9-3.7
					c-2,1.3-3.1,3-3.1,4.7c0,4.8,8.7,8.6,19.4,8.6c10.7,0,19.4-3.9,19.4-8.6C157.8,56.4,157.2,55.2,156.2,54.2"/>
				<path d="M137.8,59.1c-3,0-5.5-1.1-5.5-2.4c0-1.3,2.5-2.4,5.5-2.4s5.5,1.1,5.5,2.4C143.3,58,140.9,59.1,137.8,59.1"/>
			</g>
			<rect x="106.6" y="11.2" width="4.3" height="38.5"/>
			<polygon points="123.7,9 137.7,47.5 151.8,9 159.6,49.7 155.2,49.7 150.2,23.6 150.1,23.6 137.7,57.5 125.4,23.6 125.3,23.6 
				120.3,49.7 115.9,49.7 			"/>
			<g>
				<path d="M168.8,49.7h-4.3V11.2h6.3c3.3,0,6.8,0.1,9.6,2c2.9,2,4.3,5.4,4.3,8.8c0,3.1-1.3,6.3-3.7,8.3c-2.6,2.2-5.9,2.6-9.1,2.6
					h-3.1L168.8,49.7L168.8,49.7z M168.8,28.9h2.9c4.8,0,8.8-1.4,8.8-6.9c0-6.3-5.1-6.7-10.1-6.7h-1.6L168.8,28.9L168.8,28.9z"/>
			</g>
			<path d="M190.5,38.8l-4.6,10.9h-4.7l17.8-40.3l17.3,40.3h-4.8l-4.6-10.9H190.5z M198.8,19.4l-6.6,15.4h13L198.8,19.4z"/>
			<path d="M246.9,18.9c-3.1-3.2-7.3-5.1-11.8-5.1c-8.6,0-15.5,7.5-15.5,15.9s7,15.9,15.6,15.9c4.3,0,8.6-2.1,11.6-5.1v5.3
				c-3.3,2.4-7.4,3.8-11.5,3.8c-10.9,0-20.1-8.8-20.1-19.8c0-11,9-20.1,20.1-20.1c4.3,0,8.1,1.2,11.5,3.8L246.9,18.9L246.9,18.9z"/>
			<path d="M251.4,48.1v-4.5h2c0.4,0,0.7,0,0.9,0.1c0.2,0.1,0.4,0.2,0.5,0.4c0.1,0.2,0.2,0.4,0.2,0.7c0,0.3-0.1,0.6-0.3,0.8
				c-0.2,0.2-0.5,0.4-1,0.4c0.1,0.1,0.3,0.2,0.4,0.2c0.2,0.2,0.3,0.4,0.5,0.6l0.8,1.2h-0.8l-0.6-0.9c-0.2-0.3-0.3-0.5-0.4-0.6
				c-0.1-0.1-0.2-0.2-0.3-0.3c-0.1-0.1-0.2-0.1-0.3-0.1c-0.1,0-0.2,0-0.3,0H252v2L251.4,48.1L251.4,48.1z M252,45.6h1.3
				c0.3,0,0.5,0,0.6-0.1c0.1-0.1,0.3-0.2,0.4-0.3c0.1-0.1,0.1-0.3,0.1-0.4c0-0.2-0.1-0.4-0.2-0.5s-0.4-0.2-0.7-0.2H252V45.6z"/>
			<path d="M253.1,42.2c-2.1,0-3.7,1.7-3.7,3.7c0,2.1,1.7,3.7,3.7,3.7c2.1,0,3.7-1.7,3.7-3.7C256.8,43.9,255.2,42.2,253.1,42.2
				 M253.1,49.3c-1.9,0-3.4-1.5-3.4-3.4c0-1.8,1.5-3.3,3.4-3.3c1.9,0,3.4,1.5,3.4,3.3C256.5,47.8,255,49.3,253.1,49.3"/>
			<g>
				<path d="M216.9,66.9c-0.1-2.1-0.2-4.6-0.2-6.5h-0.1c-0.5,1.8-1.1,3.7-1.9,5.7l-2.7,7.3h-1.5l-2.4-7.2c-0.7-2.1-1.3-4.1-1.8-5.9
					h0c0,1.9-0.2,4.4-0.3,6.7l-0.4,6.5h-1.9l1.1-15.1h2.5l2.6,7.3c0.6,1.9,1.1,3.5,1.5,5.1h0.1c0.4-1.5,0.9-3.2,1.6-5.1l2.7-7.3h2.5
					l0.9,15.1h-1.9L216.9,66.9z"/>
				<path d="M232.4,68c0,4-2.8,5.8-5.4,5.8c-2.9,0-5.2-2.2-5.2-5.6c0-3.6,2.4-5.8,5.4-5.8C230.2,62.4,232.4,64.7,232.4,68z
					 M223.7,68.1c0,2.4,1.4,4.2,3.3,4.2c1.9,0,3.3-1.8,3.3-4.2c0-1.8-0.9-4.2-3.2-4.2S223.7,66,223.7,68.1z"/>
				<path d="M235.1,66c0-1.3,0-2.4-0.1-3.4h1.7l0.1,2.1h0.1c0.5-1.5,1.7-2.4,3-2.4c0.2,0,0.4,0,0.6,0.1v1.9c-0.2,0-0.4-0.1-0.7-0.1
					c-1.4,0-2.4,1.1-2.6,2.5c0,0.3-0.1,0.6-0.1,0.9v5.8h-1.9L235.1,66L235.1,66z"/>
				<path d="M245.5,59.5v3.1h2.8v1.5h-2.8V70c0,1.3,0.4,2.1,1.5,2.1c0.5,0,0.9-0.1,1.1-0.1l0.1,1.5c-0.4,0.2-1,0.3-1.8,0.3
					c-0.9,0-1.7-0.3-2.1-0.8c-0.6-0.6-0.8-1.6-0.8-2.8v-5.9h-1.7v-1.5h1.7v-2.6L245.5,59.5z"/>
				<path d="M260,62.7c0,0.8-0.1,1.7-0.1,3v6.3c0,2.5-0.5,4-1.5,5c-1,1-2.6,1.3-3.9,1.3c-1.3,0-2.7-0.3-3.6-0.9l0.5-1.5
					c0.7,0.4,1.8,0.8,3.2,0.8c2,0,3.5-1.1,3.5-3.8v-1.2h0c-0.6,1-1.8,1.8-3.5,1.8c-2.7,0-4.6-2.3-4.6-5.3c0-3.7,2.4-5.8,4.9-5.8
					c1.9,0,2.9,1,3.4,1.9h0l0.1-1.6H260z M258,66.9c0-0.3,0-0.6-0.1-0.9c-0.4-1.1-1.3-2.1-2.8-2.1c-1.9,0-3.2,1.6-3.2,4.1
					c0,2.1,1.1,3.9,3.2,3.9c1.2,0,2.3-0.8,2.7-2c0.1-0.3,0.2-0.7,0.2-1.1L258,66.9L258,66.9z"/>
				<path d="M269.4,73.5l-0.2-1.4h-0.1c-0.6,0.8-1.8,1.6-3.3,1.6c-2.2,0-3.3-1.6-3.3-3.1c0-2.6,2.3-4.1,6.5-4v-0.2
					c0-0.9-0.2-2.5-2.5-2.5c-1,0-2.1,0.3-2.8,0.8l-0.5-1.3c0.9-0.6,2.2-1,3.6-1c3.3,0,4.1,2.3,4.1,4.4v4.1c0,0.9,0,1.9,0.2,2.6
					L269.4,73.5L269.4,73.5z M269.1,68c-2.1,0-4.6,0.3-4.6,2.4c0,1.3,0.9,1.9,1.9,1.9c1.4,0,2.3-0.9,2.6-1.8
					c0.1-0.2,0.1-0.4,0.1-0.6L269.1,68L269.1,68z"/>
				<path d="M283.8,62.7c0,0.8-0.1,1.7-0.1,3v6.3c0,2.5-0.5,4-1.5,5c-1,1-2.6,1.3-4,1.3c-1.3,0-2.7-0.3-3.6-0.9l0.5-1.5
					c0.7,0.4,1.8,0.8,3.2,0.8c2,0,3.5-1.1,3.5-3.8v-1.2h0c-0.6,1-1.8,1.8-3.5,1.8c-2.7,0-4.6-2.3-4.6-5.3c0-3.7,2.4-5.8,4.9-5.8
					c1.9,0,2.9,1,3.4,1.9h0l0.1-1.6H283.8z M281.8,66.9c0-0.3,0-0.6-0.1-0.9c-0.4-1.1-1.3-2.1-2.8-2.1c-1.9,0-3.2,1.6-3.2,4.1
					c0,2.1,1.1,3.9,3.2,3.9c1.2,0,2.3-0.8,2.7-2c0.1-0.3,0.2-0.7,0.2-1.1L281.8,66.9L281.8,66.9z"/>
				<path d="M288.3,68.4c0,2.7,1.8,3.8,3.7,3.8c1.4,0,2.3-0.2,3-0.6l0.3,1.4c-0.7,0.3-1.9,0.7-3.6,0.7c-3.3,0-5.3-2.2-5.3-5.5
					c0-3.3,1.9-5.8,5.1-5.8c3.5,0,4.5,3.1,4.5,5.1c0,0.4,0,0.7-0.1,0.9H288.3z M294.1,67c0-1.3-0.5-3.2-2.7-3.2c-2,0-2.9,1.8-3,3.2
					H294.1z"/>
				<path d="M314.3,73c-0.7,0.4-2.1,0.7-4,0.7c-4.3,0-7.5-2.7-7.5-7.7c0-4.7,3.2-7.9,7.9-7.9c1.9,0,3.1,0.4,3.6,0.7l-0.5,1.6
					c-0.7-0.4-1.8-0.6-3-0.6c-3.5,0-5.9,2.3-5.9,6.2c0,3.7,2.1,6.1,5.8,6.1c1.2,0,2.4-0.2,3.2-0.6L314.3,73z"/>
				<path d="M326.5,68c0,4-2.8,5.8-5.4,5.8c-2.9,0-5.2-2.2-5.2-5.6c0-3.6,2.4-5.8,5.4-5.8C324.4,62.4,326.5,64.7,326.5,68z
					 M317.9,68.1c0,2.4,1.4,4.2,3.3,4.2c1.9,0,3.3-1.8,3.3-4.2c0-1.8-0.9-4.2-3.2-4.2C318.9,63.9,317.9,66,317.9,68.1z"/>
				<path d="M329.2,66c0-1.3,0-2.4-0.1-3.4h1.7l0.1,2.1h0.1c0.5-1.5,1.7-2.4,3-2.4c0.2,0,0.4,0,0.6,0.1v1.9c-0.2,0-0.4-0.1-0.7-0.1
					c-1.4,0-2.4,1.1-2.6,2.5c0,0.3-0.1,0.6-0.1,0.9v5.8h-2L329.2,66L329.2,66z"/>
				<path d="M336.8,66.2c0-1.4,0-2.5-0.1-3.5h1.8l0.1,1.9h0c0.8-1.3,2.1-2.1,3.9-2.1c2.6,0,4.6,2.2,4.6,5.5c0,3.9-2.4,5.8-4.9,5.8
					c-1.4,0-2.7-0.6-3.3-1.7h0v5.9h-2L336.8,66.2L336.8,66.2z M338.8,69.1c0,0.3,0,0.6,0.1,0.8c0.4,1.4,1.5,2.3,3,2.3
					c2.1,0,3.3-1.7,3.3-4.2c0-2.2-1.1-4-3.2-4c-1.4,0-2.6,1-3,2.4c-0.1,0.2-0.1,0.5-0.1,0.8L338.8,69.1L338.8,69.1z"/>
				<path d="M348.8,72.3c0-0.8,0.6-1.4,1.4-1.4c0.8,0,1.3,0.6,1.3,1.4c0,0.8-0.5,1.4-1.4,1.4C349.3,73.8,348.8,73.1,348.8,72.3z"/>
			</g>
		</g>
		<g>
			<path d="M204.6,90.4l-1.9-7.9h1.5l0.8,3.6c0.2,1,0.4,2,0.5,2.7h0c0.1-0.8,0.4-1.8,0.6-2.8l0.9-3.6h1.5l0.8,3.6
				c0.2,0.9,0.4,1.8,0.5,2.7h0c0.1-0.9,0.3-1.8,0.5-2.7l0.8-3.6h1.5l-2.1,7.9h-1.5l-0.8-3.7c-0.2-0.9-0.3-1.6-0.4-2.5h0
				c-0.1,0.8-0.3,1.6-0.5,2.5l-0.9,3.7L204.6,90.4L204.6,90.4z"/>
			<path d="M225.6,82.5v3.2h3.3v-3.2h1.4v7.9H229v-3.5h-3.3v3.5h-1.4v-7.9H225.6z"/>
			<path d="M249.8,86.4c0,2.6-1.6,4.1-3.8,4.1c-2.2,0-3.6-1.7-3.6-4c0-2.4,1.5-4.1,3.7-4.1C248.4,82.4,249.8,84.1,249.8,86.4z
				 M243.9,86.5c0,1.6,0.8,2.9,2.2,2.9c1.4,0,2.2-1.3,2.2-2.9c0-1.5-0.7-2.9-2.2-2.9C244.7,83.5,243.9,84.9,243.9,86.5z"/>
			<path d="M261.8,82.5h1.4v6.7h3.2v1.2h-4.7V82.5z"/>
			<path d="M282.7,86.9h-3v2.3h3.3v1.2h-4.7v-7.9h4.6v1.2h-3.1v2h3V86.9z"/>
			<path d="M295,88.8c0.5,0.3,1.2,0.5,1.9,0.5c0.9,0,1.4-0.4,1.4-1.1c0-0.6-0.4-0.9-1.4-1.3c-1.3-0.5-2.1-1.2-2.1-2.3
				c0-1.3,1.1-2.3,2.8-2.3c0.9,0,1.5,0.2,1.9,0.4l-0.4,1.2c-0.3-0.2-0.8-0.4-1.6-0.4c-0.9,0-1.3,0.5-1.3,0.9c0,0.6,0.5,0.9,1.5,1.3
				c1.4,0.5,2,1.2,2,2.3c0,1.3-1,2.3-3,2.3c-0.8,0-1.7-0.2-2.1-0.5L295,88.8z"/>
			<path d="M313.5,88.2l-0.7,2.2h-1.5l2.5-7.9h1.8l2.5,7.9h-1.5l-0.7-2.2H313.5z M315.7,87.1l-0.6-1.9c-0.1-0.5-0.3-1-0.4-1.5h0
				c-0.1,0.5-0.2,1-0.4,1.5l-0.6,1.9H315.7z"/>
			<path d="M330.1,82.5h1.4v6.7h3.2v1.2h-4.7V82.5z"/>
			<path d="M351,86.9h-3v2.3h3.3v1.2h-4.7v-7.9h4.6v1.2H348v2h3V86.9z"/>
		</g>
	</g>
</g>
<g id="Outlined_x5F_white" class="st0">
	<g class="st1">
		<g>
			<g>
				<path class="st4" d="M189.1,56.3c1.7,2.2,2.6,4.6,2.6,7.1c0,2.2-0.8,4.4-2.1,6.4c-5.5,10.2-27.2,17.9-53.1,17.9
					c-30.1,0-54.4-10.3-54.4-23c0-6,5.4-11.4,14.3-15.5c1.7-0.9,3.6-1.8,5.6-2.6c-13.7,4.7-22.6,12-22.6,20.3
					c0,14.1,25.8,25.6,57.5,25.6c31.8,0,57.5-11.4,57.5-25.6C194.3,63.2,192.4,59.6,189.1,56.3"/>
				<path class="st4" d="M175.3,55.2c1.1,1.6,1.8,3.4,1.8,5.2c0,9.8-17.9,17.7-39.9,17.7c-22,0-39.9-7.9-39.9-17.7
					c0-2.9,1.5-5.6,4.2-7.9c-4.3,2.9-6.8,6.4-6.8,10.2c0,10.3,18.8,18.7,42,18.7c23.2,0,42-8.4,42-18.7
					C178.8,60,177.6,57.5,175.3,55.2"/>
				<path class="st4" d="M165,54.4c0.8,1.2,1.2,2.4,1.2,3.7c0,7-12.7,12.6-28.4,12.6c-15.7,0-28.3-5.6-28.3-12.6c0-2,1.1-3.9,3-5.6
					c-3,2.1-4.8,4.6-4.8,7.2c0,7.3,13.4,13.3,29.9,13.3s29.9-5.9,29.9-13.3C167.4,57.8,166.6,56,165,54.4"/>
				<path class="st4" d="M156.2,54.2c0.5,0.8,0.8,1.6,0.8,2.4c0,4.5-8.2,8.2-18.4,8.2c-10.2,0-18.4-3.7-18.4-8.2
					c0-1.3,0.7-2.6,1.9-3.7c-2,1.3-3.1,3-3.1,4.7c0,4.8,8.7,8.6,19.4,8.6c10.7,0,19.4-3.9,19.4-8.6
					C157.8,56.4,157.2,55.2,156.2,54.2"/>
				<path class="st4" d="M137.8,59.1c-3,0-5.5-1.1-5.5-2.4c0-1.3,2.5-2.4,5.5-2.4s5.5,1.1,5.5,2.4C143.3,58,140.9,59.1,137.8,59.1"
					/>
			</g>
			<rect x="106.6" y="11.2" class="st4" width="4.3" height="38.5"/>
			<polygon class="st4" points="123.7,9 137.7,47.5 151.8,9 159.6,49.7 155.2,49.7 150.2,23.6 150.1,23.6 137.7,57.5 125.4,23.6 
				125.3,23.6 120.3,49.7 115.9,49.7 			"/>
			<g>
				<path class="st4" d="M168.8,49.7h-4.3V11.2h6.3c3.3,0,6.8,0.1,9.6,2c2.9,2,4.3,5.4,4.3,8.8c0,3.1-1.3,6.3-3.7,8.3
					c-2.6,2.2-5.9,2.6-9.1,2.6h-3.1L168.8,49.7L168.8,49.7z M168.8,28.9h2.9c4.8,0,8.8-1.4,8.8-6.9c0-6.3-5.1-6.7-10.1-6.7h-1.6
					L168.8,28.9L168.8,28.9z"/>
			</g>
			<path class="st4" d="M190.5,38.8l-4.6,10.9h-4.7l17.8-40.3l17.3,40.3h-4.8l-4.6-10.9H190.5z M198.8,19.4l-6.6,15.4h13L198.8,19.4
				z"/>
			<path class="st4" d="M246.9,18.9c-3.1-3.2-7.3-5.1-11.8-5.1c-8.6,0-15.5,7.5-15.5,15.9s7,15.9,15.6,15.9c4.3,0,8.6-2.1,11.6-5.1
				v5.3c-3.3,2.4-7.4,3.8-11.5,3.8c-10.9,0-20.1-8.8-20.1-19.8c0-11,9-20.1,20.1-20.1c4.3,0,8.1,1.2,11.5,3.8L246.9,18.9L246.9,18.9
				z"/>
			<path class="st4" d="M251.4,48.1v-4.5h2c0.4,0,0.7,0,0.9,0.1c0.2,0.1,0.4,0.2,0.5,0.4c0.1,0.2,0.2,0.4,0.2,0.7
				c0,0.3-0.1,0.6-0.3,0.8c-0.2,0.2-0.5,0.4-1,0.4c0.1,0.1,0.3,0.2,0.4,0.2c0.2,0.2,0.3,0.4,0.5,0.6l0.8,1.2h-0.8l-0.6-0.9
				c-0.2-0.3-0.3-0.5-0.4-0.6c-0.1-0.1-0.2-0.2-0.3-0.3c-0.1-0.1-0.2-0.1-0.3-0.1c-0.1,0-0.2,0-0.3,0H252v2L251.4,48.1L251.4,48.1z
				 M252,45.6h1.3c0.3,0,0.5,0,0.6-0.1c0.1-0.1,0.3-0.2,0.4-0.3c0.1-0.1,0.1-0.3,0.1-0.4c0-0.2-0.1-0.4-0.2-0.5s-0.4-0.2-0.7-0.2
				H252V45.6z"/>
			<path class="st4" d="M253.1,42.2c-2.1,0-3.7,1.7-3.7,3.7c0,2.1,1.7,3.7,3.7,3.7c2.1,0,3.7-1.7,3.7-3.7
				C256.8,43.9,255.2,42.2,253.1,42.2 M253.1,49.3c-1.9,0-3.4-1.5-3.4-3.4c0-1.8,1.5-3.3,3.4-3.3c1.9,0,3.4,1.5,3.4,3.3
				C256.5,47.8,255,49.3,253.1,49.3"/>
			<g>
				<path class="st4" d="M216.9,66.9c-0.1-2.1-0.2-4.6-0.2-6.5h-0.1c-0.5,1.8-1.1,3.7-1.9,5.7l-2.7,7.3h-1.5l-2.4-7.2
					c-0.7-2.1-1.3-4.1-1.8-5.9h0c0,1.9-0.2,4.4-0.3,6.7l-0.4,6.5h-1.9l1.1-15.1h2.5l2.6,7.3c0.6,1.9,1.1,3.5,1.5,5.1h0.1
					c0.4-1.5,0.9-3.2,1.6-5.1l2.7-7.3h2.5l0.9,15.1h-1.9L216.9,66.9z"/>
				<path class="st4" d="M232.4,68c0,4-2.8,5.8-5.4,5.8c-2.9,0-5.2-2.2-5.2-5.6c0-3.6,2.4-5.8,5.4-5.8
					C230.2,62.4,232.4,64.7,232.4,68z M223.7,68.1c0,2.4,1.4,4.2,3.3,4.2c1.9,0,3.3-1.8,3.3-4.2c0-1.8-0.9-4.2-3.2-4.2
					S223.7,66,223.7,68.1z"/>
				<path class="st4" d="M235.1,66c0-1.3,0-2.4-0.1-3.4h1.7l0.1,2.1h0.1c0.5-1.5,1.7-2.4,3-2.4c0.2,0,0.4,0,0.6,0.1v1.9
					c-0.2,0-0.4-0.1-0.7-0.1c-1.4,0-2.4,1.1-2.6,2.5c0,0.3-0.1,0.6-0.1,0.9v5.8h-1.9L235.1,66L235.1,66z"/>
				<path class="st4" d="M245.5,59.5v3.1h2.8v1.5h-2.8V70c0,1.3,0.4,2.1,1.5,2.1c0.5,0,0.9-0.1,1.1-0.1l0.1,1.5
					c-0.4,0.2-1,0.3-1.8,0.3c-0.9,0-1.7-0.3-2.1-0.8c-0.6-0.6-0.8-1.6-0.8-2.8v-5.9h-1.7v-1.5h1.7v-2.6L245.5,59.5z"/>
				<path class="st4" d="M260,62.7c0,0.8-0.1,1.7-0.1,3v6.3c0,2.5-0.5,4-1.5,5c-1,1-2.6,1.3-3.9,1.3c-1.3,0-2.7-0.3-3.6-0.9l0.5-1.5
					c0.7,0.4,1.8,0.8,3.2,0.8c2,0,3.5-1.1,3.5-3.8v-1.2h0c-0.6,1-1.8,1.8-3.5,1.8c-2.7,0-4.6-2.3-4.6-5.3c0-3.7,2.4-5.8,4.9-5.8
					c1.9,0,2.9,1,3.4,1.9h0l0.1-1.6H260z M258,66.9c0-0.3,0-0.6-0.1-0.9c-0.4-1.1-1.3-2.1-2.8-2.1c-1.9,0-3.2,1.6-3.2,4.1
					c0,2.1,1.1,3.9,3.2,3.9c1.2,0,2.3-0.8,2.7-2c0.1-0.3,0.2-0.7,0.2-1.1L258,66.9L258,66.9z"/>
				<path class="st4" d="M269.4,73.5l-0.2-1.4h-0.1c-0.6,0.8-1.8,1.6-3.3,1.6c-2.2,0-3.3-1.6-3.3-3.1c0-2.6,2.3-4.1,6.5-4v-0.2
					c0-0.9-0.2-2.5-2.5-2.5c-1,0-2.1,0.3-2.8,0.8l-0.5-1.3c0.9-0.6,2.2-1,3.6-1c3.3,0,4.1,2.3,4.1,4.4v4.1c0,0.9,0,1.9,0.2,2.6
					L269.4,73.5L269.4,73.5z M269.1,68c-2.1,0-4.6,0.3-4.6,2.4c0,1.3,0.9,1.9,1.9,1.9c1.4,0,2.3-0.9,2.6-1.8
					c0.1-0.2,0.1-0.4,0.1-0.6L269.1,68L269.1,68z"/>
				<path class="st4" d="M283.8,62.7c0,0.8-0.1,1.7-0.1,3v6.3c0,2.5-0.5,4-1.5,5c-1,1-2.6,1.3-4,1.3c-1.3,0-2.7-0.3-3.6-0.9l0.5-1.5
					c0.7,0.4,1.8,0.8,3.2,0.8c2,0,3.5-1.1,3.5-3.8v-1.2h0c-0.6,1-1.8,1.8-3.5,1.8c-2.7,0-4.6-2.3-4.6-5.3c0-3.7,2.4-5.8,4.9-5.8
					c1.9,0,2.9,1,3.4,1.9h0l0.1-1.6H283.8z M281.8,66.9c0-0.3,0-0.6-0.1-0.9c-0.4-1.1-1.3-2.1-2.8-2.1c-1.9,0-3.2,1.6-3.2,4.1
					c0,2.1,1.1,3.9,3.2,3.9c1.2,0,2.3-0.8,2.7-2c0.1-0.3,0.2-0.7,0.2-1.1L281.8,66.9L281.8,66.9z"/>
				<path class="st4" d="M288.3,68.4c0,2.7,1.8,3.8,3.7,3.8c1.4,0,2.3-0.2,3-0.6l0.3,1.4c-0.7,0.3-1.9,0.7-3.6,0.7
					c-3.3,0-5.3-2.2-5.3-5.5c0-3.3,1.9-5.8,5.1-5.8c3.5,0,4.5,3.1,4.5,5.1c0,0.4,0,0.7-0.1,0.9H288.3z M294.1,67
					c0-1.3-0.5-3.2-2.7-3.2c-2,0-2.9,1.8-3,3.2H294.1z"/>
				<path class="st4" d="M314.3,73c-0.7,0.4-2.1,0.7-4,0.7c-4.3,0-7.5-2.7-7.5-7.7c0-4.7,3.2-7.9,7.9-7.9c1.9,0,3.1,0.4,3.6,0.7
					l-0.5,1.6c-0.7-0.4-1.8-0.6-3-0.6c-3.5,0-5.9,2.3-5.9,6.2c0,3.7,2.1,6.1,5.8,6.1c1.2,0,2.4-0.2,3.2-0.6L314.3,73z"/>
				<path class="st4" d="M326.5,68c0,4-2.8,5.8-5.4,5.8c-2.9,0-5.2-2.2-5.2-5.6c0-3.6,2.4-5.8,5.4-5.8
					C324.4,62.4,326.5,64.7,326.5,68z M317.9,68.1c0,2.4,1.4,4.2,3.3,4.2c1.9,0,3.3-1.8,3.3-4.2c0-1.8-0.9-4.2-3.2-4.2
					C318.9,63.9,317.9,66,317.9,68.1z"/>
				<path class="st4" d="M329.2,66c0-1.3,0-2.4-0.1-3.4h1.7l0.1,2.1h0.1c0.5-1.5,1.7-2.4,3-2.4c0.2,0,0.4,0,0.6,0.1v1.9
					c-0.2,0-0.4-0.1-0.7-0.1c-1.4,0-2.4,1.1-2.6,2.5c0,0.3-0.1,0.6-0.1,0.9v5.8h-2L329.2,66L329.2,66z"/>
				<path class="st4" d="M336.8,66.2c0-1.4,0-2.5-0.1-3.5h1.8l0.1,1.9h0c0.8-1.3,2.1-2.1,3.9-2.1c2.6,0,4.6,2.2,4.6,5.5
					c0,3.9-2.4,5.8-4.9,5.8c-1.4,0-2.7-0.6-3.3-1.7h0v5.9h-2L336.8,66.2L336.8,66.2z M338.8,69.1c0,0.3,0,0.6,0.1,0.8
					c0.4,1.4,1.5,2.3,3,2.3c2.1,0,3.3-1.7,3.3-4.2c0-2.2-1.1-4-3.2-4c-1.4,0-2.6,1-3,2.4c-0.1,0.2-0.1,0.5-0.1,0.8L338.8,69.1
					L338.8,69.1z"/>
				<path class="st4" d="M348.8,72.3c0-0.8,0.6-1.4,1.4-1.4c0.8,0,1.3,0.6,1.3,1.4c0,0.8-0.5,1.4-1.4,1.4
					C349.3,73.8,348.8,73.1,348.8,72.3z"/>
			</g>
		</g>
		<g>
			<path class="st4" d="M204.6,90.4l-1.9-7.9h1.5l0.8,3.6c0.2,1,0.4,2,0.5,2.7h0c0.1-0.8,0.4-1.8,0.6-2.8l0.9-3.6h1.5l0.8,3.6
				c0.2,0.9,0.4,1.8,0.5,2.7h0c0.1-0.9,0.3-1.8,0.5-2.7l0.8-3.6h1.5l-2.1,7.9h-1.5l-0.8-3.7c-0.2-0.9-0.3-1.6-0.4-2.5h0
				c-0.1,0.8-0.3,1.6-0.5,2.5l-0.9,3.7L204.6,90.4L204.6,90.4z"/>
			<path class="st4" d="M225.6,82.5v3.2h3.3v-3.2h1.4v7.9H229v-3.5h-3.3v3.5h-1.4v-7.9H225.6z"/>
			<path class="st4" d="M249.8,86.4c0,2.6-1.6,4.1-3.8,4.1c-2.2,0-3.6-1.7-3.6-4c0-2.4,1.5-4.1,3.7-4.1
				C248.4,82.4,249.8,84.1,249.8,86.4z M243.9,86.5c0,1.6,0.8,2.9,2.2,2.9c1.4,0,2.2-1.3,2.2-2.9c0-1.5-0.7-2.9-2.2-2.9
				C244.7,83.5,243.9,84.9,243.9,86.5z"/>
			<path class="st4" d="M261.8,82.5h1.4v6.7h3.2v1.2h-4.7V82.5z"/>
			<path class="st4" d="M282.7,86.9h-3v2.3h3.3v1.2h-4.7v-7.9h4.6v1.2h-3.1v2h3V86.9z"/>
			<path class="st4" d="M295,88.8c0.5,0.3,1.2,0.5,1.9,0.5c0.9,0,1.4-0.4,1.4-1.1c0-0.6-0.4-0.9-1.4-1.3c-1.3-0.5-2.1-1.2-2.1-2.3
				c0-1.3,1.1-2.3,2.8-2.3c0.9,0,1.5,0.2,1.9,0.4l-0.4,1.2c-0.3-0.2-0.8-0.4-1.6-0.4c-0.9,0-1.3,0.5-1.3,0.9c0,0.6,0.5,0.9,1.5,1.3
				c1.4,0.5,2,1.2,2,2.3c0,1.3-1,2.3-3,2.3c-0.8,0-1.7-0.2-2.1-0.5L295,88.8z"/>
			<path class="st4" d="M313.5,88.2l-0.7,2.2h-1.5l2.5-7.9h1.8l2.5,7.9h-1.5l-0.7-2.2H313.5z M315.7,87.1l-0.6-1.9
				c-0.1-0.5-0.3-1-0.4-1.5h0c-0.1,0.5-0.2,1-0.4,1.5l-0.6,1.9H315.7z"/>
			<path class="st4" d="M330.1,82.5h1.4v6.7h3.2v1.2h-4.7V82.5z"/>
			<path class="st4" d="M351,86.9h-3v2.3h3.3v1.2h-4.7v-7.9h4.6v1.2H348v2h3V86.9z"/>
		</g>
	</g>
</g>
<g>
	<path class="st5" d="M137.6,57.1c2,2.7,3.1,5.6,3.1,8.6c0,2.7-0.9,5.3-2.6,7.8c-6.6,12.4-32.8,21.6-64,21.6
		C37.9,95,8.5,82.6,8.5,67.3c0-7.2,6.5-13.8,17.2-18.7c2-1.1,4.3-2.2,6.7-3.2C15.9,51,5.2,59.9,5.2,69.9c0,17,31,30.8,69.3,30.8
		c38.3,0,69.3-13.8,69.3-30.8C143.9,65.3,141.6,61,137.6,57.1"/>
	<path class="st5" d="M121,55.7c1.4,2,2.1,4.1,2.1,6.3c0,11.8-21.5,21.4-48.1,21.4c-26.6,0-48.1-9.6-48.1-21.4
		c0-3.4,1.8-6.7,5.1-9.6c-5.2,3.5-8.2,7.7-8.2,12.3c0,12.4,22.7,22.5,50.7,22.5c28,0,50.7-10.1,50.7-22.5
		C125.2,61.5,123.7,58.4,121,55.7"/>
	<path class="st5" d="M108.5,54.7c1,1.4,1.5,2.9,1.5,4.5c0,8.4-15.3,15.2-34.2,15.2c-18.9,0-34.2-6.8-34.2-15.2
		c0-2.4,1.3-4.7,3.6-6.8c-3.7,2.5-5.8,5.5-5.8,8.7c0,8.8,16.1,16,36,16c19.9,0,36-7.2,36-16C111.5,58.8,110.4,56.7,108.5,54.7"/>
	<path class="st5" d="M97.9,54.5c0.6,0.9,1,1.9,1,2.9c0,5.5-10,9.9-22.2,9.9c-12.3,0-22.2-4.4-22.2-9.9c0-1.6,0.8-3.1,2.3-4.4
		c-2.4,1.6-3.8,3.6-3.8,5.7C53,64.4,63.5,69,76.5,69c12.9,0,23.4-4.7,23.4-10.4C99.9,57.1,99.2,55.7,97.9,54.5"/>
	<path class="st5" d="M75.8,60.4c-3.7,0-6.6-1.3-6.6-2.9c0-1.6,3-2.9,6.6-2.9c3.7,0,6.6,1.3,6.6,2.9C82.4,59.1,79.4,60.4,75.8,60.4"
		/>
</g>
<rect x="38.2" y="2.6" class="st6" width="5.2" height="46.4"/>
<polygon class="st6" points="58.8,0 75.7,46.5 92.6,0 102,49.1 96.7,49.1 90.8,17.7 90.6,17.7 75.7,58.5 60.8,17.7 60.6,17.7 
	54.7,49.1 49.4,49.1 "/>
<g>
	<path class="st6" d="M113.1,49.1H108V2.6h7.6c4,0,8.1,0.1,11.5,2.5c3.4,2.4,5.2,6.5,5.2,10.6c0,3.8-1.5,7.6-4.4,10
		c-3.1,2.6-7.2,3.1-11,3.1h-3.8V49.1z M113.1,24h3.4c5.7,0,10.6-1.7,10.6-8.4c0-7.6-6.1-8.1-12.1-8.1h-1.9V24z"/>
</g>
<path class="st6" d="M139.3,35.9l-5.6,13.2H128l21.4-48.7l20.9,48.7h-5.7l-5.5-13.2H139.3z M149.3,12.5l-7.9,18.6h15.7L149.3,12.5z"
	/>
<path class="st6" d="M207.4,12c-3.7-3.8-8.8-6.2-14.2-6.2c-10.3,0-18.7,9-18.7,19.2c0,10.2,8.4,19.2,18.8,19.2
	c5.2,0,10.3-2.5,14-6.2v6.4c-4,2.9-8.9,4.6-13.9,4.6c-13.1,0-24.2-10.6-24.2-23.8c0-13.3,10.9-24.2,24.2-24.2
	c5.2,0,9.7,1.5,13.9,4.6V12z"/>
<path class="st6" d="M212.7,47.2v-5.5h2.4c0.5,0,0.8,0,1.1,0.2c0.3,0.1,0.5,0.3,0.6,0.5c0.1,0.2,0.2,0.5,0.2,0.8
	c0,0.4-0.1,0.7-0.4,1c-0.3,0.3-0.6,0.4-1.2,0.5c0.2,0.1,0.3,0.2,0.4,0.3c0.2,0.2,0.4,0.4,0.6,0.7l0.9,1.5h-0.9l-0.7-1.1
	c-0.2-0.3-0.4-0.6-0.5-0.7c-0.1-0.2-0.3-0.3-0.4-0.4c-0.1-0.1-0.2-0.1-0.3-0.2c-0.1,0-0.2,0-0.4,0h-0.8v2.4H212.7z M213.4,44.1h1.5
	c0.3,0,0.6,0,0.8-0.1c0.2-0.1,0.3-0.2,0.4-0.3c0.1-0.1,0.1-0.3,0.1-0.5c0-0.3-0.1-0.5-0.3-0.6c-0.2-0.2-0.5-0.3-0.9-0.3h-1.7V44.1z"
	/>
<path class="st6" d="M214.8,40.1c-2.5,0-4.5,2-4.5,4.5c0,2.5,2,4.5,4.5,4.5c2.5,0,4.5-2,4.5-4.5C219.3,42.1,217.3,40.1,214.8,40.1
	 M214.8,48.6c-2.2,0-4-1.8-4-4c0-2.2,1.8-4,4-4c2.2,0,4.1,1.8,4.1,4C218.8,46.8,217,48.6,214.8,48.6"/>
<g>
	<path class="st7" d="M170.3,70.8c-0.1-2.6-0.3-5.8-0.3-8.1h-0.1c-0.7,2.2-1.4,4.5-2.4,7.1l-3.3,9.1h-1.8l-3-8.9
		c-0.9-2.7-1.6-5-2.1-7.3h-0.1c-0.1,2.3-0.2,5.4-0.4,8.3l-0.5,8h-2.3l1.3-18.7h3.1l3.2,9c0.8,2.3,1.4,4.4,1.9,6.3h0.1
		c0.5-1.9,1.2-3.9,2-6.3l3.3-9h3.1l1.2,18.7h-2.4L170.3,70.8z"/>
	<path class="st7" d="M189,72.2c0,5-3.5,7.1-6.7,7.1c-3.6,0-6.4-2.7-6.4-6.9c0-4.5,3-7.1,6.6-7.1C186.4,65.3,189,68.1,189,72.2z
		 M178.4,72.3c0,2.9,1.7,5.2,4,5.2c2.3,0,4.1-2.2,4.1-5.2c0-2.3-1.1-5.1-4-5.1C179.7,67.1,178.4,69.8,178.4,72.3z"/>
	<path class="st7" d="M192.1,69.8c0-1.6,0-2.9-0.1-4.2h2.1l0.1,2.7h0.1c0.6-1.8,2.1-2.9,3.7-2.9c0.2,0,0.4,0,0.7,0.1v2.3
		c-0.2-0.1-0.5-0.1-0.8-0.1c-1.7,0-2.9,1.3-3.3,3.1c-0.1,0.3-0.1,0.7-0.1,1.1V79h-2.4V69.8z"/>
	<path class="st7" d="M204.8,62.4v3.2h3.5v1.9h-3.5v7.2c0,1.7,0.5,2.6,1.8,2.6c0.7,0,1.1-0.1,1.4-0.2l0.1,1.9
		c-0.5,0.2-1.2,0.3-2.2,0.3c-1.1,0-2.1-0.4-2.6-1c-0.7-0.7-0.9-1.9-0.9-3.5v-7.3h-2.1v-1.9h2.1v-2.5L204.8,62.4z"/>
	<path class="st7" d="M222.3,77c0,3.1-0.6,5-1.9,6.2c-1.3,1.2-3.2,1.6-4.9,1.6c-1.6,0-3.4-0.4-4.5-1.1l0.6-1.9
		c0.9,0.6,2.3,1.1,3.9,1.1c2.5,0,4.3-1.3,4.3-4.7v-1.5h-0.1c-0.7,1.2-2.2,2.2-4.3,2.2c-3.3,0-5.7-2.8-5.7-6.5c0-4.5,3-7.1,6.1-7.1
		c2.3,0,3.6,1.2,4.2,2.3h0.1l0.1-2h2.2c-0.1,0.9-0.1,2-0.1,3.7V77z M219.9,70.9c0-0.4,0-0.8-0.1-1.1c-0.4-1.4-1.6-2.6-3.4-2.6
		c-2.3,0-4,2-4,5.1c0,2.6,1.4,4.8,4,4.8c1.5,0,2.9-0.9,3.4-2.5c0.1-0.4,0.2-0.9,0.2-1.3V70.9z"/>
	<path class="st7" d="M235.8,75.8c0,1.2,0.1,2.3,0.2,3.2h-2.2l-0.2-1.7h-0.1c-0.7,1.1-2.2,2-4.1,2c-2.7,0-4.1-1.9-4.1-3.9
		c0-3.2,2.9-5,8.1-5v-0.3c0-1.1-0.3-3.1-3-3.1c-1.3,0-2.6,0.4-3.5,1l-0.6-1.6c1.1-0.7,2.7-1.2,4.4-1.2c4.1,0,5.1,2.8,5.1,5.5V75.8z
		 M233.4,72.1c-2.7-0.1-5.7,0.4-5.7,3c0,1.6,1.1,2.3,2.3,2.3c1.8,0,2.9-1.1,3.3-2.2c0.1-0.3,0.1-0.6,0.1-0.8V72.1z"/>
	<path class="st7" d="M251.2,77c0,3.1-0.6,5-1.9,6.2c-1.3,1.2-3.2,1.6-4.9,1.6c-1.6,0-3.4-0.4-4.5-1.1l0.6-1.9
		c0.9,0.6,2.3,1.1,3.9,1.1c2.5,0,4.3-1.3,4.3-4.7v-1.5h-0.1c-0.7,1.2-2.2,2.2-4.3,2.2c-3.3,0-5.7-2.8-5.7-6.5c0-4.5,3-7.1,6.1-7.1
		c2.3,0,3.6,1.2,4.2,2.3h0.1l0.1-2h2.2c-0.1,0.9-0.1,2-0.1,3.7V77z M248.7,70.9c0-0.4,0-0.8-0.1-1.1c-0.4-1.4-1.6-2.6-3.4-2.6
		c-2.3,0-4,2-4,5.1c0,2.6,1.4,4.8,4,4.8c1.5,0,2.9-0.9,3.4-2.5c0.1-0.4,0.2-0.9,0.2-1.3V70.9z"/>
	<path class="st7" d="M256.5,72.7c0.1,3.3,2.1,4.7,4.6,4.7c1.7,0,2.8-0.3,3.7-0.7l0.4,1.7c-0.9,0.4-2.4,0.9-4.5,0.9
		c-4.1,0-6.6-2.7-6.6-6.8c0-4,2.4-7.2,6.3-7.2c4.4,0,5.5,3.8,5.5,6.3c0,0.5,0,0.9-0.1,1.1H256.5z M263.7,71c0-1.5-0.6-3.9-3.4-3.9
		c-2.5,0-3.5,2.2-3.7,3.9H263.7z"/>
	<path class="st7" d="M277.4,60.3v7.8h9v-7.8h2.4V79h-2.4v-8.8h-9V79H275V60.3H277.4z"/>
	<path class="st7" d="M305.1,72.2c0,5-3.5,7.1-6.7,7.1c-3.6,0-6.4-2.7-6.4-6.9c0-4.5,3-7.1,6.6-7.1
		C302.5,65.3,305.1,68.1,305.1,72.2z M294.5,72.3c0,2.9,1.7,5.2,4,5.2c2.3,0,4.1-2.2,4.1-5.2c0-2.3-1.1-5.1-4-5.1
		C295.8,67.1,294.5,69.8,294.5,72.3z"/>
	<path class="st7" d="M308.2,59.3h2.4V79h-2.4V59.3z"/>
	<path class="st7" d="M326.3,59.3v16.2c0,1.2,0.1,2.5,0.1,3.5h-2.2l-0.1-2.3H324c-0.7,1.5-2.3,2.6-4.5,2.6c-3.2,0-5.8-2.7-5.8-6.8
		c0-4.5,2.8-7.2,6-7.2c2.1,0,3.4,1,4,2h0.1v-8H326.3z M323.9,71c0-0.3,0-0.7-0.1-1c-0.4-1.5-1.7-2.8-3.5-2.8c-2.5,0-4,2.2-4,5.2
		c0,2.7,1.4,5,4,5c1.6,0,3.1-1.1,3.6-2.9c0.1-0.3,0.1-0.7,0.1-1.1V71z"/>
	<path class="st7" d="M333.1,61.8c0,0.8-0.6,1.5-1.6,1.5c-0.9,0-1.5-0.7-1.5-1.5c0-0.8,0.6-1.5,1.5-1.5
		C332.5,60.3,333.1,61,333.1,61.8z M330.4,79V65.6h2.4V79H330.4z"/>
	<path class="st7" d="M336.8,69.2c0-1.4,0-2.5-0.1-3.6h2.2l0.1,2.2h0.1c0.7-1.2,2.2-2.5,4.4-2.5c1.9,0,4.7,1.1,4.7,5.7v8h-2.4v-7.7
		c0-2.2-0.8-4-3.1-4c-1.6,0-2.8,1.1-3.3,2.5c-0.1,0.3-0.2,0.7-0.2,1.1V79h-2.4V69.2z"/>
	<path class="st7" d="M363.7,77c0,3.1-0.6,5-1.9,6.2c-1.3,1.2-3.2,1.6-4.9,1.6c-1.6,0-3.4-0.4-4.5-1.1l0.6-1.9
		c0.9,0.6,2.3,1.1,3.9,1.1c2.5,0,4.3-1.3,4.3-4.7v-1.5h-0.1c-0.7,1.2-2.2,2.2-4.3,2.2c-3.3,0-5.7-2.8-5.7-6.5c0-4.5,3-7.1,6.1-7.1
		c2.3,0,3.6,1.2,4.2,2.3h0.1l0.1-2h2.2c-0.1,0.9-0.1,2-0.1,3.7V77z M361.2,70.9c0-0.4,0-0.8-0.1-1.1c-0.4-1.4-1.6-2.6-3.4-2.6
		c-2.3,0-4,2-4,5.1c0,2.6,1.4,4.8,4,4.8c1.5,0,2.9-0.9,3.4-2.5c0.1-0.4,0.2-0.9,0.2-1.3V70.9z"/>
	<path class="st7" d="M367.4,76.5c0.7,0.4,2,0.9,3.2,0.9c1.7,0,2.6-0.9,2.6-2c0-1.2-0.7-1.8-2.5-2.4c-2.4-0.9-3.6-2.2-3.6-3.8
		c0-2.2,1.8-3.9,4.6-3.9c1.4,0,2.5,0.4,3.3,0.8l-0.6,1.8c-0.5-0.3-1.5-0.8-2.7-0.8c-1.4,0-2.2,0.8-2.2,1.8c0,1.1,0.8,1.6,2.5,2.3
		c2.3,0.9,3.5,2,3.5,4c0,2.4-1.9,4-5,4c-1.5,0-2.8-0.4-3.8-0.9L367.4,76.5z"/>
	<path class="st7" d="M376.8,82.4c0.6-1.7,1.4-4.6,1.7-6.6l2.7-0.3c-0.7,2.4-1.9,5.4-2.7,6.7L376.8,82.4z"/>
	<path class="st7" d="M392.5,60.3V79H390V60.3H392.5z"/>
	<path class="st7" d="M396.9,69.2c0-1.4,0-2.5-0.1-3.6h2.2l0.1,2.2h0.1c0.7-1.2,2.2-2.5,4.4-2.5c1.9,0,4.7,1.1,4.7,5.7v8h-2.4v-7.7
		c0-2.2-0.8-4-3.1-4c-1.6,0-2.8,1.1-3.3,2.5c-0.1,0.3-0.2,0.7-0.2,1.1V79h-2.4V69.2z"/>
	<path class="st7" d="M421.8,78.5c-0.6,0.3-2.1,0.8-3.9,0.8c-4,0-6.7-2.7-6.7-6.8c0-4.1,2.8-7.1,7.2-7.1c1.4,0,2.7,0.4,3.4,0.7
		l-0.6,1.9c-0.6-0.3-1.5-0.6-2.8-0.6c-3.1,0-4.7,2.3-4.7,5.1c0,3.1,2,5,4.7,5c1.4,0,2.3-0.3,3-0.6L421.8,78.5z"/>
	<path class="st7" d="M423.8,77.6c0-1,0.7-1.7,1.7-1.7c1,0,1.6,0.7,1.6,1.7c0,1-0.7,1.7-1.7,1.7C424.5,79.3,423.8,78.5,423.8,77.6z"
		/>
</g>
</svg>
